<?xml version="1.0" standalone="no"?>
<!DOCTYPE svg PUBLIC "-//W3C//DTD SVG 20010904//EN"
 "http://www.w3.org/TR/2001/REC-SVG-20010904/DTD/svg10.dtd">
<svg version="1.0" xmlns="http://www.w3.org/2000/svg"
 width="189.000000pt" height="189.000000pt" viewBox="0 0 189.000000 189.000000"
 preserveAspectRatio="xMidYMid meet">
<metadata>
Created by potrace 1.10, written by Peter Selinger 2001-2011
</metadata>
<g transform="translate(0.000000,189.000000) scale(0.100000,-0.100000)"
fill="#000000" stroke="none">
<path d="M0 945 l0 -945 945 0 945 0 0 930 c0 820 -2 930 -15 930 -8 0 -15 7
-15 15 0 13 -110 15 -930 15 l-930 0 0 -945z m1020 103 c14 -13 77 -71 140
-128 63 -57 115 -111 115 -119 0 -22 -19 -23 -40 -3 -131 120 -259 232 -267
232 -5 0 -33 -22 -61 -49 -29 -27 -86 -80 -127 -119 -41 -39 -83 -71 -92 -72
-26 0 -33 21 -12 37 10 7 63 55 119 106 188 175 170 166 225 115z"/>
</g>
</svg>
